<?xml version="1.0" encoding="UTF-8"?>
<svg id="Layer_2" data-name="Layer 2" xmlns="http://www.w3.org/2000/svg" viewBox="0 0 371.01 261.27">
  <defs>
    <style>
      .cls-1 {
        fill: #f4806b;
      }
    </style>
  </defs>
  <g id="icon-0">
    <g id="tight-bounds">
      <g>
        <path class="cls-1" d="M185.5,0C83.05,0,0,50.77,0,113.39c0,13.65,3.95,26.73,11.18,38.85-4.44,7.22-7,15.52-7,24.38,0,27.71,24.8,50.16,55.39,50.16,3.57,0,7.05-.33,10.43-.92,10.16,20.42,43.2,35.41,82.5,35.41,41.5,0,76.1-16.69,84.06-38.87,2.84-.49,5.64-1.03,8.41-1.6,7.14,3.77,15.58,5.99,24.66,5.99,22.97,0,41.95-13.99,45.38-32.24,34.53-20.59,55.99-49.33,55.99-81.15C371.01,50.77,287.96,0,185.5,0Zm-6.79,141.61c-54.44,0-97.08-23.63-97.08-53.79s42.64-53.79,97.08-53.79,97.08,23.63,97.08,53.79-42.64,53.79-97.08,53.79Z"/>
        <path class="cls-1" d="M178.71,50.51c-38.12,0-80.59,15.32-80.59,37.3s42.47,37.3,80.59,37.3,80.59-15.32,80.59-37.3-42.47-37.3-80.59-37.3Zm8.36,61.83c-38.19,0-63.56-12.28-73.68-22.8-3.16-3.28-3.05-8.5,.23-11.66,3.28-3.15,8.5-3.06,11.66,.23,8.22,8.55,31.07,17.75,61.8,17.75,4.55,0,8.24,3.69,8.24,8.24s-3.69,8.24-8.24,8.24Z"/>
      </g>
    </g>
  </g>
</svg>